<svg id="visual" viewBox="0 0 900 600" width="900" height="600" xmlns="http://www.w3.org/2000/svg" xmlns:xlink="http://www.w3.org/1999/xlink" version="1.1"><rect x="0" y="0" width="900" height="600" fill="#f5f5f5"></rect><defs><linearGradient id="grad1_0" x1="33.3%" y1="0%" x2="100%" y2="100%"><stop offset="20%" stop-color="#0aab2c" stop-opacity="1"></stop><stop offset="80%" stop-color="#0aab2c" stop-opacity="1"></stop></linearGradient></defs><defs><linearGradient id="grad1_1" x1="33.3%" y1="0%" x2="100%" y2="100%"><stop offset="20%" stop-color="#0aab2c" stop-opacity="1"></stop><stop offset="80%" stop-color="#98d292" stop-opacity="1"></stop></linearGradient></defs><defs><linearGradient id="grad1_2" x1="33.3%" y1="0%" x2="100%" y2="100%"><stop offset="20%" stop-color="#f5f5f5" stop-opacity="1"></stop><stop offset="80%" stop-color="#98d292" stop-opacity="1"></stop></linearGradient></defs><defs><linearGradient id="grad2_0" x1="0%" y1="0%" x2="66.7%" y2="100%"><stop offset="20%" stop-color="#0aab2c" stop-opacity="1"></stop><stop offset="80%" stop-color="#0aab2c" stop-opacity="1"></stop></linearGradient></defs><defs><linearGradient id="grad2_1" x1="0%" y1="0%" x2="66.7%" y2="100%"><stop offset="20%" stop-color="#98d292" stop-opacity="1"></stop><stop offset="80%" stop-color="#0aab2c" stop-opacity="1"></stop></linearGradient></defs><defs><linearGradient id="grad2_2" x1="0%" y1="0%" x2="66.7%" y2="100%"><stop offset="20%" stop-color="#98d292" stop-opacity="1"></stop><stop offset="80%" stop-color="#f5f5f5" stop-opacity="1"></stop></linearGradient></defs><g transform="translate(900, 0)"><path d="M0 243.4C-30.6 239.3 -61.1 235.2 -93.1 224.8C-125.1 214.5 -158.6 197.7 -170.4 170.4C-182.3 143.1 -172.5 105.2 -181.1 75C-189.6 44.8 -216.5 22.4 -243.4 0L0 0Z" fill="#c7e4c3"></path><path d="M0 162.2C-20.4 159.5 -40.8 156.8 -62.1 149.9C-83.4 143 -105.7 131.8 -113.6 113.6C-121.5 95.4 -115 70.1 -120.7 50C-126.4 29.9 -144.3 14.9 -162.2 0L0 0Z" fill="#64bf61"></path><path d="M0 81.1C-10.2 79.8 -20.4 78.4 -31 74.9C-41.7 71.5 -52.9 65.9 -56.8 56.8C-60.8 47.7 -57.5 35.1 -60.4 25C-63.2 14.9 -72.2 7.5 -81.1 0L0 0Z" fill="#0aab2c"></path></g><g transform="translate(0, 600)"><path d="M0 -243.4C33.8 -242.4 67.5 -241.4 93.1 -224.8C118.7 -208.3 136.2 -176 149.2 -149.2C162.2 -122.4 170.7 -100.9 185.7 -76.9C200.7 -52.9 222 -26.5 243.4 0L0 0Z" fill="#c7e4c3"></path><path d="M0 -162.2C22.5 -161.6 45 -161 62.1 -149.9C79.2 -138.8 90.8 -117.4 99.5 -99.5C108.1 -81.6 113.8 -67.3 123.8 -51.3C133.8 -35.3 148 -17.6 162.2 0L0 0Z" fill="#64bf61"></path><path d="M0 -81.1C11.3 -80.8 22.5 -80.5 31 -74.9C39.6 -69.4 45.4 -58.7 49.7 -49.7C54.1 -40.8 56.9 -33.6 61.9 -25.6C66.9 -17.6 74 -8.8 81.1 0L0 0Z" fill="#0aab2c"></path></g></svg>