<svg id="visual" viewBox="0 0 900 600" width="900" height="600" xmlns="http://www.w3.org/2000/svg" xmlns:xlink="http://www.w3.org/1999/xlink" version="1.1"><rect x="0" y="0" width="900" height="600" fill="#f5f5f5"></rect><defs><linearGradient id="grad1_0" x1="33.3%" y1="0%" x2="100%" y2="100%"><stop offset="20%" stop-color="#0ba92e" stop-opacity="1"></stop><stop offset="80%" stop-color="#0ba92e" stop-opacity="1"></stop></linearGradient></defs><defs><linearGradient id="grad1_1" x1="33.3%" y1="0%" x2="100%" y2="100%"><stop offset="20%" stop-color="#0ba92e" stop-opacity="1"></stop><stop offset="80%" stop-color="#98d092" stop-opacity="1"></stop></linearGradient></defs><defs><linearGradient id="grad1_2" x1="33.3%" y1="0%" x2="100%" y2="100%"><stop offset="20%" stop-color="#f5f5f5" stop-opacity="1"></stop><stop offset="80%" stop-color="#98d092" stop-opacity="1"></stop></linearGradient></defs><defs><linearGradient id="grad2_0" x1="0%" y1="0%" x2="66.7%" y2="100%"><stop offset="20%" stop-color="#0ba92e" stop-opacity="1"></stop><stop offset="80%" stop-color="#0ba92e" stop-opacity="1"></stop></linearGradient></defs><defs><linearGradient id="grad2_1" x1="0%" y1="0%" x2="66.7%" y2="100%"><stop offset="20%" stop-color="#98d092" stop-opacity="1"></stop><stop offset="80%" stop-color="#0ba92e" stop-opacity="1"></stop></linearGradient></defs><defs><linearGradient id="grad2_2" x1="0%" y1="0%" x2="66.7%" y2="100%"><stop offset="20%" stop-color="#98d092" stop-opacity="1"></stop><stop offset="80%" stop-color="#f5f5f5" stop-opacity="1"></stop></linearGradient></defs><g transform="translate(900, 0)"><path d="M0 324.5C-37.8 315 -75.6 305.5 -121.7 293.8C-167.8 282.1 -222.1 268.1 -229.5 229.5C-236.8 190.8 -197.1 127.3 -205.1 85C-213.1 42.6 -268.8 21.3 -324.5 0L0 0Z" fill="#c7e3c3"></path><path d="M0 216.3C-25.2 210 -50.4 203.7 -81.1 195.9C-111.8 188.1 -148.1 178.8 -153 153C-157.9 127.2 -131.4 84.9 -136.7 56.6C-142.1 28.4 -179.2 14.2 -216.3 0L0 0Z" fill="#64bd62"></path><path d="M0 108.2C-12.6 105 -25.2 101.8 -40.6 97.9C-55.9 94 -74 89.4 -76.5 76.5C-78.9 63.6 -65.7 42.4 -68.4 28.3C-71 14.2 -89.6 7.1 -108.2 0L0 0Z" fill="#0ba92e"></path></g><g transform="translate(0, 600)"><path d="M0 -324.5C38.5 -313.7 77.1 -302.8 120.2 -290.1C163.2 -277.4 210.9 -262.7 229.5 -229.5C248 -196.2 237.5 -144.3 248.5 -102.9C259.5 -61.6 292 -30.8 324.5 0L0 0Z" fill="#c7e3c3"></path><path d="M0 -216.3C25.7 -209.1 51.4 -201.9 80.1 -193.4C108.8 -184.9 140.6 -175.1 153 -153C165.4 -130.8 158.4 -96.2 165.7 -68.6C173 -41.1 194.7 -20.5 216.3 0L0 0Z" fill="#64bd62"></path><path d="M0 -108.2C12.8 -104.6 25.7 -100.9 40.1 -96.7C54.4 -92.5 70.3 -87.6 76.5 -76.5C82.7 -65.4 79.2 -48.1 82.8 -34.3C86.5 -20.5 97.3 -10.3 108.2 0L0 0Z" fill="#0ba92e"></path></g></svg>